# xmcd CD database file
#
# Track frame offsets:
#	150
#	17655
#	32954
#	54310
#	72488
#	91776
#	110218
#	127956
#	145796
#	163564
#	180235
#	194775
#	213785
#
# Disc length: 3138 seconds
#
# Revision: 0
# Processed by: cddbd v1.5.2PL0 Copyright (c) Steve Scherf et al.
# Submitted via: CDex 1.51
#
DISCID=b30c400d
DTITLE=Hillary Scott and The Scott Family - Love Remains
DYEAR=2016
DGENRE=Country
TTITLE0=Beautiful Messes
TTITLE1=Still
TTITLE2=Sheltered In The Arms Of God
TTITLE3=Safe Haven
TTITLE4=Faithful Love Of Jesus
TTITLE5=The River
TTITLE6=Thy Will
TTITLE7=Untitled Hymn (Come To Jesus)
TTITLE8=Love Remains
TTITLE9=We March On
TTITLE10=Unfailing Love
TTITLE11=Come Thou Fount
TTITLE12=Ain't No Grave
EXTD=YEAR: 2016
EXTT0=
EXTT1=
EXTT2=
EXTT3=
EXTT4=
EXTT5=
EXTT6=
EXTT7=
EXTT8=
EXTT9=
EXTT10=
EXTT11=
EXTT12=
PLAYORDER=
